/* XPM */
static char *e0910c64135c4b6e91d4fb45e9f6b89aiVmemU2mWUKEM6H2[] = {
/* columns rows colors chars-per-pixel */
"64 64 240 2 ",
"   c #213C11",
".  c #294D18",
"X  c #285518",
"o  c #324D18",
"O  c #2C6418",
"+  c #38631E",
"@  c #355F25",
"#  c #3A5E32",
"$  c #366625",
"%  c #3C7629",
"&  c #3C6C38",
"*  c #445D3A",
"=  c #496B39",
"-  c #4A753B",
";  c #4A7C3C",
":  c #487536",
">  c #567E3E",
",  c #41712F",
"<  c #545013",
"1  c #4C7941",
"2  c #567745",
"3  c #537651",
"4  c #617F45",
"5  c #64795A",
"6  c #617F63",
"7  c #B45C15",
"8  c #AB5510",
"9  c #BE6517",
"0  c #AF601B",
"q  c #87682F",
"w  c #BC6B26",
"e  c #B27030",
"r  c #DB6D08",
"t  c #DC730B",
"y  c #C16414",
"u  c #C96A16",
"i  c #D46E12",
"p  c #CC771C",
"a  c #DC7513",
"s  c #D77618",
"d  c #CC690E",
"f  c #E16F00",
"g  c #E57302",
"h  c #E97702",
"j  c #EC7A02",
"k  c #E4750B",
"l  c #EA770A",
"z  c #EA7B0C",
"x  c #E6780A",
"c  c #F17E03",
"v  c #F27F09",
"b  c #E37B15",
"n  c #F17E12",
"m  c #C7772C",
"M  c #CD7E3C",
"N  c #BB7F4D",
"B  c #C27C42",
"V  c #608015",
"C  c #4A813A",
"Z  c #53913C",
"A  c #77903C",
"S  c #598646",
"D  c #5B9548",
"F  c #678754",
"G  c #728D5B",
"H  c #6A9C5C",
"J  c #689558",
"K  c #799957",
"L  c #688B4F",
"P  c #6BA45A",
"I  c #76A55C",
"U  c #6A8663",
"Y  c #73896C",
"T  c #789768",
"R  c #7A9676",
"E  c #77A465",
"W  c #7DB06E",
"Q  c #809E2C",
"!  c #A58532",
"~  c #D7811E",
"^  c #F4820D",
"/  c #F38106",
"(  c #EC8415",
")  c #FD8A1B",
"_  c #F78717",
"`  c #EE810C",
"'  c #D4883A",
"]  c #D9852C",
"[  c #E9872A",
"{  c #F98C22",
"}  c #FA922B",
"|  c #E48C35",
" . c #F69539",
".. c #FFA33F",
"X. c #829B4C",
"o. c #BC884D",
"O. c #BC8559",
"+. c #82A35F",
"@. c #9AB651",
"#. c #829F68",
"$. c #869879",
"%. c #878868",
"&. c #88A56D",
"*. c #96AE69",
"=. c #98B369",
"-. c #87A776",
";. c #94AC76",
":. c #88B478",
">. c #99B675",
",. c #A2B66B",
"<. c #D58B46",
"1. c #DA944C",
"2. c #D68E51",
"3. c #DB9858",
"4. c #CB8A51",
"5. c #E7974B",
"6. c #EC9C50",
"7. c #E7A15B",
"8. c #F0A154",
"9. c #D79F6B",
"0. c #DB9E72",
"q. c #DAA674",
"w. c #E1A767",
"e. c #EDAE77",
"r. c #FFBC79",
"t. c #FFB665",
"y. c #9DC177",
"u. c #B2CD76",
"i. c #819D84",
"p. c #8BA987",
"a. c #95A986",
"s. c #8CB682",
"d. c #9BB384",
"f. c #97B788",
"g. c #99B795",
"h. c #9FAD93",
"j. c #A5B88A",
"k. c #A6BB96",
"l. c #B3A88E",
"z. c #A8BAA5",
"x. c #CDB694",
"c. c #E7B386",
"v. c #F6B989",
"b. c #E7B68C",
"n. c #CDBFB2",
"m. c #9AC487",
"M. c #9EC39A",
"N. c #ACC388",
"B. c #B4C787",
"V. c #BDD389",
"C. c #ABC19B",
"Z. c #A7C895",
"A. c #B5CB98",
"S. c #ADD89C",
"D. c #BBD397",
"F. c #B8E19D",
"G. c #ADCAA2",
"H. c #A9C5A3",
"J. c #BCCCA3",
"K. c #B6C9A8",
"L. c #BBD8A7",
"P. c #BCCAB3",
"I. c #BDD8B7",
"U. c #AED3A8",
"Y. c #BBE5A4",
"T. c #C4D798",
"R. c #C5D394",
"E. c #FFCF9C",
"W. c #FBC499",
"Q. c #F2C18C",
"!. c #FFE798",
"~. c #FFE98F",
"^. c #C1CDA5",
"/. c #C5DDAE",
"(. c #C6D8A7",
"). c #C2CEB8",
"_. c #CDDDB3",
"`. c #C5D7B8",
"'. c #D3D6B0",
"]. c #FFD7A7",
"[. c #FFD8B2",
"{. c #F6C6A0",
"}. c #C7E7A8",
"|. c #D3E9A6",
" X c #CAE5B9",
".X c #DCEDBC",
"XX c #D5E7BA",
"oX c #D8F9BA",
"OX c #FCE3B7",
"+X c #E3FBB9",
"@X c #FFE9AD",
"#X c #C9D9C4",
"$X c #D2DDC8",
"%X c #CAE6C3",
"&X c #D5E4C3",
"*X c #D4EACB",
"=X c #DCEBCA",
"-X c #D9E4C8",
";X c #DBF3CD",
":X c #D7F3C4",
">X c #DBECD1",
",X c #D9E7D4",
"<X c #DCF7D3",
"1X c #CEF4C1",
"2X c #E5EAC8",
"3X c #FFEECB",
"4X c #FFECC2",
"5X c #EBFBC9",
"6X c #E5F8C6",
"7X c #FFF5CC",
"8X c #F3FFCD",
"9X c #E2ECDC",
"0X c #E5EAD7",
"qX c #FBEAD7",
"wX c #EBFDD3",
"eX c #E5F5DC",
"rX c #ECF4DC",
"tX c #E4FCDA",
"yX c #EBFEDC",
"uX c #E6F9D4",
"iX c #FFF3D4",
"pX c #F5FFD6",
"aX c #FBFCD5",
"sX c #FFF7DB",
"dX c #F4FFDB",
"fX c #FEFADD",
"gX c #EDF3E4",
"hX c #ECFEE3",
"jX c #EDF3EA",
"kX c #EAFEE6",
"lX c #F4FEE5",
"zX c #FDFCE4",
"xX c #F3FFEC",
"cX c #FDFDEC",
"vX c #FAF5E5",
"bX c #F4FFF1",
"nX c #FDFDF4",
"mX c #FFFFFF",
"MX c #EEECE2",
"NX c #F1DECD",
/* pixels */
"mXmXmXmXmXmXmXmXmXmXmXmXmXmXmXmXmXnXmXmXmXmXmXmXmXmXmXmXmXmXmXmXmXmXmXmXmXmXmXmXmXmXmXjXjXmXmXmXmXmXmXmXmXmXmXmXmXmXmXmXmXmXmXmX",
"mXmXmXmXmXmXmXmXmXmXmXmXmXmXmXmXmXMX0XcXcXnXmXmXmXmXmXmXmXmXmXmXmXmXmXmXmXmXmXmXnXnXxXP.jXmXmXmXmXmXmXmXmXmXmXmXmXmXmXmXmXmXmXmX",
"mXmXmXmXmXmXmXmXmXmXmXmXmXmXmXmXmXrX;.|.8XzXnXmXmXmXmXmXmXmXmXmXmXmXmXmXmXmXmXnX-XdXk.C.$XnXmXmXmXmXmXmXmXmXmXmXmXmXmXmXmXmXmXmX",
"mXmXmXmXmXmXmXmXmXmXmXmXmXmXmXmXmXcXN.A ,.B.cXnXmXmXmXmXmXmXmXmXmXmXmXmXnXnX-X=X6X;.&.j.-XnXmXmXmXmXmXmXmXmXmXmXmXmXmXmXmXmXmXmX",
"mXmXmXmXmXmXmXmXmXmXmXmXmXmXmXmXmXnX5XX.Q @.pX0XgXmXmXmXmXmXmXmXmXmXnXnX`.lXJ.(.L.F N.J.nXmXmXmXmXmXmXmXmXmXmXmXmXmXmXmXmXmXmXmX",
"mXmXmXmXmXmXmXmXmXmXmXmXmXmXmXmXmXnXpX*.V @.aXK.0XmXmXmXmXmXmXmXmXmX#XeXXX(.5X;.F f._.zXnXmXmXmXmXmXmXmXmXmXmXmXmXmXmXmXmXmXmXmX",
"mXmXmXmXmXmXmXmXmXmXmXmXmXmXmXmXmXmXlX6X>.>.aX$.>XmXmXmXmXmXmXnX$XxX`.J.5Xj.;XT .XXXrXnXmXmXmXmXmXmXmXmXmXmXmXmXmXmXmXmXmXmXmXmX",
"mXmXmXmXmXmXmXmXmXmXmXmXmXmXmXmXmXmX0X`.6X&.6Xj.>XnXnXmXmXmXmXnXa.yX:X&.6Xj.$. X/.k.rXmXmXmXmXmXmXmXmXmXmXmXmXmXmXmXmXmXmXmXmXmX",
"mXmXmXmXmXmXmXmXmXmXmXmXmXmXmXmXmXmXnXJ.*.X.*.;.=XxX-XnXmXnXnXnX&.}.dXd./. X-.J.j.&XbXmXmXmXmXmXmXmXmXmXmXmXmXmXmXmXmXmXmXmXmXmX",
"mXmXmXmXmXmXmXmXmXmXmXmXmXmXmXmXmXmXnX2X|.|.+.;.dXk.h.nXnX#X9XnX&.K dXC.;.L.wX6X&XlXmXmXmXmXmXmXmXmXmXmXmXmXmXmXmXmXmXmXmXmXmXmX",
"mXmXmXmXmXmXmXmXmXmXmXmXmXmXmXmXmXmXnX-X>.K 4 S.}.4 `.nXtXp.,XnXuXF d.:XT &.A.d.&XlXmXmXmXmXmXmXmXmXmXmXmXmXmXmXmXmXmXmXmXmXmXmX",
"mXmXmXmXmXmXmXmXmXmXmXmXmXmXmXmXmXmXnX=X8X+XL.:.I L xXhXs.F eX,X:XZ.2 wXZ.E  X/.K.#XmXmXmXmXmXmXmXmXmXmXmXmXmXmXmXmXmXmXmXmXmXmX",
"mXmXmXmXmXmXmXmXmXmXmXmXmXmXmXmXmXmXmX-XK u.Y.J > /.hX<X$ ; tX>X1 S.S }.:XU d.;.P.nXmXmXmXmXmXmXmXmXmXmXmXmXmXmXmXmXmXmXmXmXmXmX",
"mXmXmXmXmXmXmXmXmXmXmXmXmXmXmXmXmXmXmXxX;.: C - :.hXZ.m.O I 1XG.:.H >.:.G.U.yXdXlXcXnXmXmXmXmXmXmXmXmXmXmXmXmXmXmXmXmXmXmXmXmXmX",
"mXmXmXmXmXmXmXmXmXmXmXmXmXmXmXmXmXmXmXnXnXhXhXhXp.U., % O s.Z.F 1X- m.:.F Z.oXoXY.A.eXxXmXmXmXmXmXmXmXmXmXmXmXmXmXmXmXmXmXmXmXmX",
"mXmXmXmXmXmXmXmXmXmXmXmXmXmXmXmXmXnX9XeXbXxXhX<Xs.1 O O -.uXS , hXs.: S.J -.= 4 : G P.jXmXmXmXmXmXmXmXmXmXmXmXmXmXmXmXmXmXmXmXmX",
"mXmXmXmXmXmXmXmXmXmXmXmXmXmXmXnX>XtXS.S s.:.D % O $ s.I.xXG.. $ ;XI.: H g.xX`.k.K.`.jXmXmXmXmXmXmXmXmXmXmXmXmXmXmXmXmXmXmXmXmXmX",
"mXmXmXmXmXmXmXmXmXmXmXmXmXmXmXmX$XY - $ X X O O C m.p.xXhXU . T  X-.:.- U.%XhXlXxX,XmXmXmXmXmXmXmXmXmXmXmXmXmXmXmXmXmXmXmXmXmXmX",
"mXmXmXmXmXmXmXmXmXmXmXmXmXmXmXmXmXxXI.k.g.H.*X X XxXI.g.%X= . 1XT 1 hX3 ; P W E -.#X,XnXmXmXmXmXmXmXmXmXmXmXmXmXmXmXmXmXmXmXmXmX",
"mXmXmXmXmXmXmXmXmXmXmXmXmXmXmXmXmX9XnXnXbXxX>X>X`.p.I.g.T . -.;Xo = I.3 J S : :.yXK.).mXmXmXmXmXmXmXmXmXmXmXmXmXmXmXmXmXmXmXmXmX",
"xXxXnXmXmXmXmXmXmXmXmXmXmXmXnX,XnX`.).xX9Xa.2 = = . . @ # f.xXC.  -.H.i.xXhXxXhXf.* #XmXmXmXmXmXmXmXmXmXmXmXmXmXmXmXmXmXmXmXmXmX",
"rX-X2XdXcXnXmXmXmXjX0XxXgXgXxX).-XlXj.yXnXxX&.m. XZ.L E  Xg.*X5   G.p.g.`.I.`.R = L.nXmXmXmXmXmXmXmXmXmXmXmXmXmXmXmXmXmXmXmXmXmX",
"5XT.u.R.8XcXnXmXnXcXJ.^.pX^.2XwXj.6X>.Z.xXxX&.&.xXhXS Y.xX,Xp.* * tXT & ; S @ . T eXmXmXmXmXmXmXmXmXmXmXmXmXmXmXmXmXmXmXmXmXmXmX",
"aXT.u.u.u.6XcXgX$XpX8XB.T..Xj.5XN.D.}.T $XxXA.#.nXkX- :.xXz.#X3 %XxXU & X + L (.dXcXmXmXmXmXmXmXmXmXmXmXmXmXmXmXmXmXmXmXmXmXmXmX",
"cXdX|.V.y.*.).rXXX(.+X+XD.(..XD..Xj.dXJ.j.lX XF hXxXJ H hXY *XP.z.bX6 %X`.^.OX7XfXzXnXmXmXmXmXmXmXmXmXmXmXmXmXmXmXmXmXmXmXmXmXmX",
"mXnXzX5X+X.X_.K.D.|.V.V.8X|.(..X_._.&XcXK.yXdXT #XxXm.; hXU $.bXR #XY 0XfXQ.o.e N b.zXnXmXmXmXmXmXmXmXmXmXmXmXmXmXmXmXmXmXmXmXmX",
"mXmXnXnXcXcXlX.XV.,.>.j.>.>.d.C.a.h.a.k.a.f.k.R R I.R 3 kXp.U bX,X$.%.x.4.8 u s u 7 0.zXnXmXmXmXmXmXmXmXmXmXmXmXmXmXmXmXmXmXmXmX",
"mXmXmXmXmXnXlX_.T.R.6XwXZ.D.pXL. XlX:XZ.C.yXH.<X<Xp.Z.M.R R T ;XcXx.q e 7 i l g g a 7 v.cXmXmXmXmXmXmXmXmXmXmXmXmXmXmXmXmXmXmXmX",
"mXmXmXmXmXmXmXnXlXwX.Xj.(.pXV.N.wX X>.*.wX>XP.xX XT yXg.kXkX3 2 x.9.0 s b g h h h x i w iXnXmXmXmXmXmXmXmXmXmXmXmXmXmXmXmXmXmXmX",
"mXmXmXmXmXmXmXmXmXnXwX_.dX_.>.|.aXT.*.|.pXj.-XlXd.m.m.= bXP.o ,.o.8 i n v j h j j g r y b.cXnXmXmXmXmXmXmXmXmXmXmXmXmXmXmXmXmXmX",
"mXmXmXmXmXmXmXmXmXmXnXcXuXA.^.pXT.=.*.5X+X#.;X=X2 F.P J xXh.< ! p t l v v v j g f r g i B iXnXmXmXmXmXmXmXmXmXmXmXmXmXmXmXmXmXmX",
"mXmXmXmXmXmXmXmXmXmXmXmXlX_.cXXX*.=.N.oXy.+.;XG.G oXE J xX2Xq w ( v v c c c j g h h h a 9 W.zXnXmXmXmXmXmXmXmXmXmXmXmXmXmXmXmXmX",
"mXmXmXmXmXmXmXmXmXmXmXmXnXnXlXJ.>.D.dX_.K >.lXxXT oXD D xXzXw.~ ( v c c / c c j h h h x i M sXnXmXmXmXmXmXmXmXmXmXmXmXmXmXmXmXmX",
"mXmXmXmXmXmXmXmXmXmXmXmXmXmXxXeX(.dXcX&X>.K eXxXG oXZ C hXzXQ.] } _ ` z v c / c j h h h x y c.zXnXmXmXmXmXmXmXmXmXmXmXmXmXmXmXmX",
"mXmXmXmXmXmXmXmXmXmXmXmXmXmXmXnXnXnXmXnX=Xk.P.xXa.}.P % eXcXOX<.|  . .[ _ v j g j c h j x a w [.cXmXmXmXmXmXmXmXmXmXmXmXmXmXmXmX",
"mXmXmXmXmXmXmXmXmXmXmXmXmXmXmXmXmXmXmXmXnXnX9XnX-Xf.P , hXnXsXc.<.!.!.6.{ _ g v c c j j f t d 2.zXnXmXmXmXmXmXmXmXmXmXmXmXmXmXmX",
"mXmXmXmXmXmXmXmXmXmXmXmXmXmXmXmXmXmXmXmXmXmXmXmXnXK.s.1 kXmXnXsX9.r.@Xt.b z _ ^ c c v g g x k 9 W.cXnXmXmXmXmXmXmXmXmXmXmXmXmXmX",
"mXmXmXmXmXmXmXmXmXmXmXmXmXmXmXmXmXmXmXmXmXmXmXmXnXbXhXg.bXmXmXcX7X9.3.5.[ } ) ) ^ v j j j h x i B iXnXmXmXmXmXmXmXmXmXmXmXmXmXmX",
"mXmXmXmXmXmXmXmXmXmXmXmXmXmXmXmXmXmXmXmXmXmXmXmXmXnXnXjXnXmXmXmXnXfXc.<.5.~..._ ) ^ v / j h h k y v.zXmXmXmXmXmXmXmXmXmXmXmXmXmX",
"mXmXmXmXmXmXmXmXmXmXmXmXmXmXmXmXmXmXmXmXmXmXmXmXmXmXmXmXmXmXmXmXmXnXiXE.2.8. ._ ) ) ^ v j h j x r m iXnXmXmXmXmXmXmXmXmXmXmXmXmX",
"mXmXmXmXmXmXmXmXmXmXmXmXmXmXmXmXmXmXmXmXmXmXmXmXmXmXmXmXmXmXmXmXmXmXcXzXOX3.[ ) ) ) _ g v j g r k y c.zXnXmXmXmXmXmXmXmXmXmXmXmX",
"mXmXmXmXmXmXmXmXmXmXmXmXmXmXmXmXmXmXmXmXmXmXmXmXmXmXmXmXmXmXmXmXmXmXmXnXzX4X5.[ { _ n ^ v c g g l i e 3XcXmXmXmXmXmXmXmXmXmXmXmX",
"mXmXmXmXmXmXmXmXmXmXmXmXmXmXmXmXmXmXmXmXmXmXmXmXmXmXmXmXmXmXmXmXmXmXmXmXnXzX4X7.[ ) ) ) v c j h h k y e.zXmXmXmXmXmXmXmXmXmXmXmX",
"mXmXmXmXmXmXmXmXmXmXmXmXmXmXmXmXmXmXmXmXmXmXmXmXmXmXmXmXmXmXmXmXmXmXmXmXmXnXcX3X7.[ { ) ^ c v j h x r m iXnXmXmXmXmXmXmXmXmXmXmX",
"mXmXmXmXmXmXmXmXmXmXmXmXmXmXmXmXmXmXmXmXmXmXmXmXmXmXmXmXmXmXmXmXmXmXmXmXmXmXnXcXiXe.[ { _ c v g h h k 9 b.zXnXmXmXmXmXmXmXmXmXmX",
"mXmXmXmXmXmXmXmXmXmXmXmXmXmXmXmXmXmXmXmXmXmXmXmXmXmXmXmXmXmXmXmXmXmXmXmXmXmXmXmXnXsXr.| ( ` h h j h x i B iXnXmXmXmXmXmXmXmXmXmX",
"mXmXmXmXmXmXmXmXmXmXmXmXmXmXmXmXmXmXmXmXmXmXmXmXmXmXmXmXmXmXmXmXmXmXmXmXmXmXmXmXmXcXfXE.] b ^ / j h h t y v.zXmXmXmXmXmXmXmXmXmX",
"mXmXmXmXmXmXmXmXmXmXmXmXmXmXmXmXmXmXmXmXmXmXmXmXmXmXmXmXmXmXmXmXmXmXmXmXmXmXmXmXmXmXnXzX].' a ` j j h k i M fXmXmXmXmXmXmXmXmXmX",
"mXmXmXmXmXmXmXmXmXmXmXmXmXmXmXmXmXmXmXmXmXmXmXmXmXmXmXmXmXmXmXmXmXmXmXmXmXmXmXmXmXmXmXnXzX4X1.s ` j j l k 9 {.cXnXmXmXmXmXmXmXmX",
"mXmXmXmXmXmXmXmXmXmXmXmXmXmXmXmXmXmXmXmXmXmXmXmXmXmXmXmXmXmXmXmXmXmXmXmXmXmXmXmXmXmXmXmXmXcX7X7.s z g h l i 4.sXnXmXmXmXmXmXmXmX",
"mXmXmXmXmXmXmXmXmXmXmXmXmXmXmXmXmXmXmXmXmXmXmXmXmXmXmXmXmXmXmXmXmXmXmXmXmXmXmXmXmXmXmXmXmXnXcXiX7.p t h h b w E.zXnXmXmXmXmXmXmX",
"mXmXmXmXmXmXmXmXmXmXmXmXmXmXmXmXmXmXmXmXmXmXmXmXmXmXmXmXmXmXmXmXmXmXmXmXmXmXmXmXmXmXmXmXmXmXmXcX7X3.s z h x d 2.zXmXmXmXmXmXmXmX",
"mXmXmXmXmXmXmXmXmXmXmXmXmXmXmXmXmXmXmXmXmXmXmXmXmXmXmXmXmXmXmXmXmXmXmXmXmXmXmXmXmXmXmXmXmXmXmXmXcX7X<.a x x k y [.cXnXmXmXmXmXmX",
"mXmXmXmXmXmXmXmXmXmXmXmXmXmXmXmXmXmXmXmXmXmXmXmXmXmXmXmXmXmXmXmXmXmXmXmXmXmXmXmXmXmXmXmXmXmXmXmXmXcX@Xm a l l d 2.fXnXmXmXmXmXmX",
"mXmXmXmXmXmXmXmXmXmXmXmXmXmXmXmXmXmXmXmXmXmXmXmXmXmXmXmXmXmXmXmXmXmXmXmXmXmXmXmXmXmXmXmXmXmXmXmXmXnXzX].m t k a 9 ].cXmXmXmXmXmX",
"mXmXmXmXmXmXmXmXmXmXmXmXmXmXmXmXmXmXmXmXmXmXmXmXmXmXmXmXmXmXmXmXmXmXmXmXmXmXmXmXmXmXmXmXmXmXmXmXmXmXnXzX].' p s u 2.zXnXmXmXmXmX",
"mXmXmXmXmXmXmXmXmXmXmXmXmXmXmXmXmXmXmXmXmXmXmXmXmXmXmXmXmXmXmXmXmXmXmXmXmXmXmXmXmXmXmXmXmXmXmXmXmXmXmXnXcX3Xw.m s y [.cXnXmXmXmX",
"mXmXmXmXmXmXmXmXmXmXmXmXmXmXmXmXmXmXmXmXmXmXmXmXmXmXmXmXmXmXmXmXmXmXmXmXmXmXmXmXmXmXmXmXmXmXmXmXmXmXmXmXnXnXsXE.' w O.qXnXmXmXmX",
"mXmXmXmXmXmXmXmXmXmXmXmXmXmXmXmXmXmXmXmXmXmXmXmXmXmXmXmXmXmXmXmXmXmXmXmXmXmXmXmXmXmXmXmXmXmXmXmXmXmXmXmXmXmXnXzXiXq.e c.qXnXmXmX",
"mXmXmXmXmXmXmXmXmXmXmXmXmXmXmXmXmXmXmXmXmXmXmXmXmXmXmXmXmXmXmXmXmXmXmXmXmXmXmXmXmXmXmXmXmXmXmXmXmXmXmXmXmXmXmXnXnXzXc.O.qXqXmXmX",
"mXmXmXmXmXmXmXmXmXmXmXmXmXmXmXmXmXmXmXmXmXmXmXmXmXmXmXmXmXmXmXmXmXmXmXmXmXmXmXmXmXmXmXmXmXmXmXmXmXmXmXmXmXmXmXmXmXcXzXx.x.zXnXmX",
"mXmXmXmXmXmXmXmXmXmXmXmXmXmXmXmXmXmXmXmXmXmXmXmXmXmXmXmXmXmXmXmXmXmXmXmXmXmXmXmXmXmXmXmXmXmXmXmXmXmXmXmXmXmXmXmXmXmXnXvXl.qXnXnX",
"mXmXmXmXmXmXmXmXmXmXmXmXmXmXmXmXmXmXmXmXmXmXmXmXmXmXmXmXmXmXmXmXmXmXmXmXmXmXmXmXmXmXmXmXmXmXmXmXmXmXmXmXmXmXmXmXmXmXmXnXNX'.vXnX",
"mXmXmXmXmXmXmXmXmXmXmXmXmXmXmXmXmXmXmXmXmXmXmXmXmXmXmXmXmXmXmXmXmXmXmXmXmXmXmXmXmXmXmXmXmXmXmXmXmXmXmXmXmXmXmXmXmXmXmXmXqXqXn.qX"
};
