/* XPM */
static char *_b10bec2bcc44b55e4c76f12c4aad6ba74gVpBB1SgPgcfeh[] = {
/* columns rows colors chars-per-pixel */
"64 64 147 2 ",
"   c #1F5F0B",
".  c #1D6406",
"X  c #1E630A",
"o  c #1F6908",
"O  c #216707",
"+  c #236B07",
"@  c #22660C",
"#  c #246B0C",
"$  c #296E0E",
"%  c #257007",
"&  c #26710D",
"*  c #2A730E",
"=  c #2D7A0D",
"-  c #317D0E",
";  c #296711",
":  c #266C11",
">  c #296E12",
",  c #277111",
"<  c #2C7412",
"1  c #2E7A12",
"2  c #2F7918",
"3  c #317614",
"4  c #327C14",
"5  c #397F16",
"6  c #307518",
"7  c #347D19",
"8  c #397F19",
"9  c #2D810C",
"0  c #32820E",
"q  c #35890F",
"w  c #398B0F",
"e  c #2E8011",
"r  c #358314",
"t  c #398516",
"y  c #368913",
"u  c #3B8B15",
"i  c #368319",
"p  c #3A8519",
"a  c #378A18",
"s  c #3D8A1A",
"d  c #398C1A",
"f  c #3D8C19",
"g  c #3E8D18",
"h  c #3F8E19",
"j  c #3D8D1A",
"k  c #3C8C1B",
"l  c #3E8D1A",
"z  c #3C8A1C",
"x  c #3F8B1E",
"c  c #3D8D1C",
"v  c #3F8D1D",
"b  c #3C8B1A",
"n  c #3D9215",
"m  c #3F9018",
"M  c #3D9318",
"N  c #3E9218",
"B  c #3E9219",
"V  c #3F921C",
"C  c #3E9119",
"Z  c #3F8D21",
"A  c #408E16",
"S  c #408D19",
"D  c #408D1B",
"F  c #418E1A",
"G  c #408F1A",
"H  c #418B1C",
"J  c #418A1E",
"K  c #408D1D",
"L  c #408F1C",
"P  c #438D1E",
"I  c #408E1E",
"U  c #418E1E",
"Y  c #418F1F",
"T  c #448E1D",
"R  c #418D1C",
"E  c #429417",
"W  c #419815",
"Q  c #429816",
"!  c #419019",
"~  c #41901B",
"^  c #40911B",
"/  c #41921A",
"(  c #42931A",
")  c #459319",
"_  c #40941A",
"`  c #43971B",
"'  c #47971A",
"]  c #40901D",
"[  c #41901D",
"{  c #43921D",
"}  c #42931D",
"|  c #40901F",
" . c #42911E",
".. c #44931C",
"X. c #46931F",
"o. c #43941C",
"O. c #44951D",
"+. c #45961D",
"@. c #46961D",
"#. c #44951F",
"$. c #45961E",
"%. c #46971E",
"&. c #47961F",
"*. c #43931C",
"=. c #49961F",
"-. c #47981F",
";. c #469A1E",
":. c #479B1F",
">. c #459A1C",
",. c #489A1E",
"<. c #4A9A1F",
"1. c #499C1E",
"2. c #45A017",
"3. c #49A01D",
"4. c #4BA21D",
"5. c #428D21",
"6. c #439322",
"7. c #469323",
"8. c #479621",
"9. c #459321",
"0. c #499722",
"q. c #469A20",
"w. c #469921",
"e. c #489920",
"r. c #499920",
"t. c #499A22",
"y. c #489C20",
"u. c #4A9C20",
"i. c #4B9D21",
"p. c #489E21",
"a. c #499F22",
"s. c #4D9F21",
"d. c #4C9E22",
"f. c #4B9C24",
"g. c #4A9C22",
"h. c #519F27",
"j. c #4CA320",
"k. c #4CA223",
"l. c #4BA124",
"z. c #4EA223",
"x. c #50A524",
"c. c #53A527",
"v. c #51A627",
"b. c #54A626",
"n. c #51A424",
"m. c #55AA25",
"M. c #51A229",
/* pixels */
"= 1 , > s P 3 = 8.3 3 r { h 7 = u , < a p 7 < < # i 6.7 < { p * i p %.7 4 t 4 # r i p < 1 # < { s < t 6.# t 4 q.7 r r u # 3 p p ",
"$ d D < h D * @ r t u * 4 C ; d.k.y > * 8 # r ! 4 r X.- X 1 r u 4 * o.> h c.! * & 7 < = ! p < %.t @ % r u r & g 7 < c.1.1 , < p ",
"h 3 $ y.* r -.` P C < r , 1 , r 4 * r > t y p @ %.4 = %.-.P ! 4 4 = 1 < - r > r < 3 y h # i C # g y.X.P u < 4 , 1 < r = < r < t ",
", 4 { b.4 # y ! h 1 7 %.z r t.p s f.y t s 1 < s c.D @ 1 ! v r 1 P %.3 -.z r 1.C y s r < r y.l.# * v D t 1 p t.4 ! { t V 1.y p a ",
"* t h 1 4 -.g W J X -.g y.7 ` 3.1 4 t T { p 4 D i < %.) w d.X g D y.p h y.t < r J { z = h g , h t.u k.> = -.` P r y.%.* r p P { ",
"4 7 v 4 1 y y 4 & ! C >.p 6 r 3 s u p 7 X.4 4 s p < r y y * a ` ` ! < i 1 s y v 4 6.u 4 r v < 1 y a * 1 %.C >.3 4 4 r u g r z X.",
"E P p 4 4 r 3 r r -.t.< u s * * t.r r D v r 6.s 4 r 7 4 4 p h c.4 0 h 1 # D h 4 p 8.4 ` h 7 r 4 r 3 p p z.v = D r % 4 1.4 r X.p ",
"h < p < 6.p , C p , k.4 %.6 u g 8 ` C *   y 7 r 4 p 8., i 6.> ` s s z 1 1.6 ! ! 4 @ * s 6 i < r.4 2 X.< r t.1 =.> 2.7 z ` y # @ ",
"< 4 o.4 1 4 p 8.< 4 < a & 4 r r < < 4 < r < 1 V p 1 4 i 6.t 6 1 r 1 , i r 4 * r < r 4 < s D 1 1 r z ! < 4 1 r # p r r * 4 1 4 r ",
"< ` 7 7 u r r v y r 8.4 7 4 z 1 @ r r < p 4 C t 7 u y i p ! = r.r r < s r @ 1 y 4 7 i r A i r u 4 r X.= P z r 6 i p * # t r 3 J ",
"1.-.q.v s 1 p n p 1 >.< h r 1.! D { >.r < t.y.-.X.s 4 7 u C < >.4 u s o.%.s { o.D , { k.%.t.z t < u C 3 u n 4 h u 1.s { ! 1.< r ",
"4 1 r r r + r t r 4 - D * r >.r p { D i 1 < 4 4 r a * * p t 4 1 u 7 * E s 4 ! ! h 1 & 4 1 r y 1 # t r 4 1 - s # g ` 4 h ! P r = ",
"= 4 4 p 7 = < p p d r r # # 1 g r # O 3 = = < 4 4 p 1 * r s g y r 1 @ < s t $ X * 4 - < 4 6 P < = 1 s s u 4 r O * 7 s < O # 4 = ",
"1 C t r , , 1 r u ! = p > P 1 %.g * p p < 1 u ! 3 4 : 1 r r %.= p , t t p 1.* r t 4 < r ` 3 r # < 1 r ` r 4 4 < P 1 k.3 - p r < ",
"4 o.t t n >.H h t d.1 r -.1.i s r t.{ 6 o.3 D g p g ` %.s r 1.p 4 d m.p s 7 ! r.4 s r r %.p u n t.s u ! %.1 i n.! p r u f.p 7 X.",
"4 s 4 P i i 3 i r u 7 g D 3 u r < y.p < r 4 h 6 z p 7 r < t t r a C t y g > %.v 4 4 7 r 7 p z 7 r = s 4 s r C s - n < p r.4 < u ",
"4 < 4 c.# < # < 4 < 3 h { 4 r t > , r , r < 2 # n.7 > $ < 6 4 * ! s z * ! , # r , 4 4 7 # ! 8.@ < # < 4 $ u s X., g 1 ; 4 4 < p ",
"7 < 4 X.+ ! k.p = B g 1.7 r s r 5.o.1 X C s 3 * { < 1 n.6.6 u n ` s r t r p =.i @ r T 3 * t u @ 4.q.8 4 o.! 6.4 i p i X.h ; & -.",
"# 4 r < r i i * r u ! t.Z 1.r 1 n.y < r 4 # * y < = i i < 1 y u 1.P 1.h = %.>., 3 i # $ 0 3 < r r 7 * y u q.%.%.%.4 u n.= < i < ",
"r s ! %.7 , p p y d 4 { # g r P r r # d.s 1 p ! { z > 4 s r o.< 6.< r t s r t # { t.< r g ! 6.< < z r n 4 p t < g r h t * 4 z.4 ",
"7 P y.! ` b.u 4 y.u < p t , p ` P r 4 y.1 u p y.%.! c.-.< -.` = 6 ! # i h 8.s * g.r u 7 %.d.h 3.4.4 s >.r * { > 4 p 8.v = 5.h - ",
"# < > 7 %.d.s r 8.7 3 4 p 4 s = u < # i p r # < , g d.5.4 6.z * 4 7 r p 4 y 4 # r i g : 1 > p t.r.5 s 6.< 4 4 p 4 u = i # < i P ",
"$ u t # h p @ O t 4 u 1 h t.> %.y.r & 4 7 $ r h > r P % . 4 r - r 1 j.< s d.n > 1 7 < 1 u 1 , X.1 X % s 3 u < y.p 4 y.>.= * 4 7 ",
"r r 6 ! 3 { C u p ! 4 = # 1 : n s 3 1 @ t 4 s < { 1 t ` u s h u = # = # r ` 3 3 # 4 r p 1 s a 7 ` h g p C 1 * * , * ` 7 3 < # s ",
"r < 7 m.1 O h { P a 1 %.r t v 6 r s y r r r 4 < n.h X 0 %.s C < s s 4 ! 7 4 s u r r r 4 , { 4.@ & o.J C 1 7 o.3 D t 3 p u y i y ",
"% s -.h 4 h y ` h . { C -.4 t.y.r P t v { 4 1 %.6.4 s h u 1.X s h k.4 ` y.g p h s P z * ` 1.i r g y 4.< & { %.s u d.-.4 { p h 6.",
"3 3 t , 7 n u y 2 4 -.-.D < g s 4 r p i { r 1 r r > C u y r < ` -.` 4 p h r = s r P s 1 4 p > u C u r < u -.>.t 7 g u 4 p t z { ",
"h v { p < = r 4 1 4.D r r r , & t.4 r z t.r v V s 4 < r 7 1 ` 1.r y r 7 X %.u r r d.r s V H r * r 4 6 r j.i y r r @ r %.r 4 %.6.",
"` 7 7 , { z $ v z 1 m., 1.7 y r p ` u 4 @ y s 7 , s %.$ r 6., z.p p 6.= n 4 %.u t > * E 7 1 4 t.4 < r.4 { 1.* h., n < 6.d g = # ",
"7 < %.7 r i i { 4 < 1 d < < s g 3 r t , 1 4 , h s 4 p i v p 6 1 p 4 < 7 C 4 1 s * < 4 3 r { 1 i i p v < = r p < < ! t = p 3 * 1 ",
"$ ! r 7 r 4 r %.- r z r < 7 p < @ = r < J $ u u 7 r = 7 v v = 5.4 r < h 1 # & r 1 i 7 1 C 7 r 0 4 t X.= P 7 y * z 4 $ @ r 4 4 P ",
"{ -.{ s { r p u s 4 k.< P 1 %.h r v D 1 6 X.1.! D v u r u ! * y.7 s i z %.r s C r > J 1.! { s n 7 r ! 4 g ` 4 H r 1.y r C h $ p ",
"h s { u r # r t 7 < 0 p 1 g 3.p ! %.z.d = p s v h r # < h p < 4 t 4 4 4.h z %.y.-.1 4 P s V y 1 # s p 4 4 r p = ` >.p =.%.k.r 4 ",
"$ & < r z = 1 p r u 1 h # # r r 1 < @ 4 = $ > < 4 v = = r s a 4 y 4 O = t 1 1 # * 4 % # * < h r = 4 p r r 4 u O * t 4 1 * # 4 = ",
"r h i p $ , , r s g - i O r 1 1.g o 4 u 1 r r ! 4 4 # < 1 p { 0 r $ < 4 s 1.# = t 4 r r X.4 p @ < = r g u 9 < @ r 3 n.= $ r t < ",
"* ` u r u u s u u d.< p C n.7 s i h h 1 p * u g r g a h u r 4.4 r p c.p p u s 8.4 p 1 4 ` r u u h p r ` s 3 i k.6.7 v r o.i 4 p ",
"r D 7 p s { r h 4 1.r r { r n r 6 j.z 4 D r { 7 p p h h t u g { r h t u g , 1.8.7 t s s p i p z ! 7 g 4 q.4 s P r E < s z.p 4 %.",
"< 4 4 n.< > X < r , 1 C ! 4 0 t > 3 7 * 3 # 7 , d.i > @ # 7 2 # C h z = g < < 7 < 4 $ 7 , P 7.# $ X 1 r # s s 6., u < < 7 1 < 4 ",
"5 < 3 y.O u %.p * C u 6.i 4 s i 7 p i @ ! H 3 # t.< < >.P > u u ) p 4 r h 4 p z : r X.4 # h h . ` ` 7 = g g Z 4 1 D 4 7 s < & -.",
"< 4 r 1 1 ! z < r a E t.P -.r 4 b.! , < i * 1 y 3 = s X.1 4 u C -.5.o.v = t.k.1 # r < < r 4 1 r 6.t < r u >.%.! 8.1 u m.r > 2 7 ",
"< r u p 7 : i r r h r 8.< ` p y u 7 # -.i # 3 u t p > 4 p = ! 4 t.3 g u r y u @ s o.# < u r s < > z 1 u r { i 7 ! r y g > 1 t.< ",
"s %.k.=.C -.r 7 >.r * u 4 4 r %.z p 2 k.r s { k.d.P ` C 2 %.` < r s , r h 6.s < d.s r v t.k.{ C o.4 p >.1 4 D , r r %.s 1 v t.4 ",
"@ 4 7 r >.m.D t t.z < 7 i > h r g 1 $ s r r > 7 r ! m.y.4 %.P = 3 s > p r u r # p 4 u O i 7 u n.c.r h 8.t = p < < u r s # 4 i u ",
"< r 1 # D p # # P < r 1 { 1.4 t { 1 * r 7 < 4 r @ i P , # t t * r 7 c.4 y { r & r i 7 1 r $ < { 3 # = P $ u < n.s 4 h h & 3 r i ",
"< s p r r %.r = r h t * $ 7 @ 1.t.r < # p , p t p 1 X.g * r t h = # r : u k.s < : 4 1 4 s s 4 v ` 1 0 r ! r # 3 < , n.! 4 $ > p ",
"h , $ j., # o.-.6.h < g 1 r 4 < 3 1 u 3 r y t @ 1.i @ u 1.P o.1 r 4 3 t 3 = < r r 4 r s O s >.@ = y.{ %.r 4 s < t 4 1 3 4 y 4 r ",
"# t 1.1.4 1 r ` s # p X.{ r 1.%.s d.u s h 1 < %.z.u < r g ` * r J y.- -.8.s 8.! y h p % { z.%.3 4 r -.2 < z t.r g y.! v 1.y s h ",
"< r p , 7 1.g n p # 1.` q.7 ! ` 1 = p P P t 1 r 4 , -.%.y ` @ ` ` -.7 u -.r * i s 5.v 1 r r > D -.u W < r 1.o.P 7 o.g , 7 s J { ",
"i i { t , = y 1 , 3.s o.- 4 1 < %.t i 7 t.7 p v h < * y r # E o.h u < i # { u s 1 t.p r s { 4 $ 0 r * y 1.y ` = r & i C u 4 P %.",
"W z 7 < s s * v s u m.& %.p 9 < 6.t y s 6 r ! t < p P < r 6.7 m.7 y r.= = p ! y u p = ` p 3 4 P 4 < { i 1.8.* y.2 9 3 t.r u p < ",
"p * h 4 s p 4 h 8 , u p p > g ! 4 h s $ # p < p p r v 1 p s > r h r 4 1 1.4 t D = # 1 7 3 z 4 h 7 i P 6 = D r p > >.r r ! 7 # % ",
"> s z 4 1 4 r t.3 i 4 r & r r < # * r < h * r P i = 1 7 6.p 1 i 4 4 , z 1 * # r < p - < h p 1 = 4 s 6.= p 4 r # s - < # 1 4 4 s ",
"r Q p p ` y r s u 4 z.1 H 1 { r # s y < 4 p ` u p h u i y ` = d.r t 4 s h % i u r < p h n p t n r r ! 9 D { 4 i 7 { = 1 h y < p ",
"y.o.-.h r # i u p < u 4 p u 4.v %.X.z.s < %.t.` { t , 1 g s < u 4 r r 4.! { %.d.t.< h 1.{ t.u 4 > s g 6 r u 4 y ` >.J -.%.j.4 r ",
"> * 6 y s * 4 p r r < ! & = g 4 4 z < 4 = @ * < 4 u = = i r r 3 u 4 # u t < z 4 1 1 # , , 1 u r % t i r 7 4 h o r g < p r 1 4 = ",
"r p r p < < , r p d 0 4 O < 1 %.u X & r 3 u 4 s r 8 # , r s g q r $ # 1 s ` O # 4 r y r s 7 z : * 1 t s u - 1 X < 4 1.* O < r = ",
"* ` t r r 4 r r u %.* p 7 d.4 ! u r s 7 4 * u ! 3 y 1 i r r y.* r 4 t.p i ! 4 s r 7 , 4 >.3 t = 7 r r -.t 4 i v 6.2 %.4 s p 7 < ",
"t X.r p h >.z C 4 1.r r %.! s t 4 z.6.4 %.r { p p u -.%.u r Q P 3 V -.t h < 1.t.7 s D s h p s ! y.p C t t.4 u -.s g 1 s z.p 4 q.",
"< r 4 8.7 < # 4 r 1 1 C P 4 q r < s 4 , 1 > s < %.p < $ , r 4 < g h p = u , p p < 1 * 7 6 s 5.< , @ i r < r n J 1 n < 4 s 1 * r ",
"7 , 6 j.O 4 r 7 < r r P s 4 t s , 6 p > h p = # n.1 > r r * r 1 ! p r = { < > s > 4 u 7 # P ` X t r 1 = 4 g s s < { 4 > r 4 , ! ",
"3 4 r t & %.q.7 3 n ` t.p ! r 7 d.-.< @ u 7 3 e p * r k.p 7 u C 1.z h s 3 X.n.4 @ r p 1 r i 4 * k.{ 4 r ! ` 7.i ! r p c.h ; * v ",
"# = y 3 4 , 7 1 4 s u q.p >.p r ` 7 > h 4 @ = y 4 r < 2 7 = s r 1.p ` g r n g # r h @ # y 4 4 4 < p * p r %.P h o.r y >.$ 3 ! $ ",
"v { y.0.p r i t n u < h * r 4 %.p r * M.s p { 1.y.D r t r u ` < s 4 1 r J s s > q.8.r P %.1.6.r t r p ` 1 4 t , t r X.r 1 i n.7 ",
"* p { u 3.m.g 4 y.u * t s > s h D r 4 8.= r 4 { h n m.1.3 %.! 1 < ! # t s ! u < =.1 u , v P u m.j.r s q.r , D < < s C h = s p r "
};
