/* XPM */
static char *f03f279e041b47ab8bf4d0f30712a92a1WnDuSVXZMGv9IPx[] = {
/* columns rows colors chars-per-pixel */
"64 64 202 2 ",
"   c None",
".  c #1B1814",
"X  c #2E210E",
"o  c #29251E",
"O  c #3A2911",
"+  c #0E1121",
"@  c #111425",
"#  c #14172A",
"$  c #17192C",
"%  c #1A1B2C",
"&  c #171B32",
"*  c #1A1D34",
"=  c #1C1F38",
"-  c #211E26",
";  c #1E2037",
":  c #1F2139",
">  c #292528",
",  c #392D27",
"<  c #212333",
"1  c #22253C",
"2  c #26293E",
"3  c #2A2D3C",
"4  c #343333",
"5  c #36353A",
"6  c #3C3B3A",
"7  c #463526",
"8  c #6F4704",
"9  c #7B5108",
"0  c #61441A",
"q  c #6D4B1F",
"w  c #7A510E",
"e  c #514331",
"r  c #62513A",
"t  c #7B5A2D",
"y  c #252841",
"u  c #2A2D43",
"i  c #2E3045",
"p  c #2F3249",
"a  c #303344",
"s  c #32344A",
"d  c #393B4F",
"f  c #373A4C",
"g  c #3A3C52",
"h  c #3F4155",
"j  c #444443",
"k  c #43455A",
"l  c #47495C",
"z  c #4A4C5D",
"x  c #5B5B5C",
"c  c #515150",
"v  c #685B4A",
"b  c #4C4E60",
"n  c #4E5162",
"m  c #57596A",
"M  c #5D5F70",
"N  c #5E6071",
"B  c #626162",
"V  c #686568",
"C  c #76736F",
"Z  c #656677",
"A  c #676979",
"S  c #6A6C7C",
"D  c #6F707D",
"F  c #767677",
"G  c #965C0D",
"H  c #9B5E0B",
"J  c #845815",
"K  c #985E11",
"L  c #9B6215",
"P  c #936416",
"I  c #A3640B",
"U  c #AB6B0B",
"Y  c #A86B0A",
"T  c #BB7607",
"R  c #BF7A07",
"E  c #B5730B",
"W  c #BB770A",
"Q  c #BD790B",
"!  c #B77307",
"~  c #A56A14",
"^  c #AA6C14",
"/  c #AC711C",
"(  c #A47112",
")  c #BD7B12",
"_  c #B1761F",
"`  c #BE7F19",
"'  c #B47717",
"]  c #845C22",
"[  c #8E6625",
"{  c #A06C23",
"}  c #A4712B",
"|  c #B27621",
" . c #B47C29",
".. c #B27824",
"X. c #A47C38",
"o. c #C47B06",
"O. c #CB7F05",
"+. c #C37D0B",
"@. c #CB7F08",
"#. c #C17F14",
"$. c #8C6C40",
"%. c #BF821D",
"&. c #BA8216",
"*. c #BF8221",
"=. c #B68334",
"-. c #CD8106",
";. c #CB830B",
":. c #CD880D",
">. c #D28505",
",. c #D68804",
"<. c #DD8E03",
"1. c #D3850A",
"2. c #D58A0D",
"3. c #DB8D0A",
"4. c #DF9206",
"5. c #DE910B",
"6. c #C48313",
"7. c #CE8916",
"8. c #CD891A",
"9. c #C6841A",
"0. c #D38B13",
"q. c #D68F19",
"w. c #D68B11",
"e. c #DC9414",
"r. c #DB941B",
"t. c #DB9B16",
"y. c #E18F04",
"u. c #E29105",
"i. c #E99307",
"p. c #E1950A",
"a. c #EE9609",
"s. c #E2990C",
"d. c #F59A0B",
"f. c #E59612",
"g. c #E39C14",
"h. c #E99A15",
"j. c #E39A1C",
"k. c #EC9D1B",
"l. c #E39619",
"z. c #F39F17",
"x. c #E6A214",
"c. c #EBA314",
"v. c #E1A118",
"b. c #EDAC1A",
"n. c #EBA81C",
"m. c #F5A312",
"M. c #F2A01D",
"N. c #F4AB19",
"B. c #F4A917",
"V. c #C18625",
"C. c #C78B29",
"Z. c #D48E20",
"A. c #D99524",
"S. c #C48C34",
"D. c #C6903A",
"F. c #CB9237",
"G. c #D69A38",
"H. c #EC9D20",
"J. c #E19C22",
"K. c #E4A127",
"L. c #EFA020",
"P. c #E7A429",
"I. c #F0A122",
"U. c #F4AA23",
"Y. c #F2AF2A",
"T. c #F4B422",
"R. c #EAA73A",
"E. c #E6A638",
"W. c #E9B236",
"Q. c #F5AD38",
"!. c #BD8C44",
"~. c #B4915E",
"^. c #978467",
"/. c #AE9166",
"(. c #D29A40",
"). c #CB9E58",
"_. c #CC9B4C",
"`. c #DCA346",
"'. c #CFA053",
"]. c #D0A153",
"[. c #E4A843",
"{. c #EAB248",
"}. c #F5B142",
"|. c #F5B349",
" X c #EAB658",
".X c #F7B954",
"XX c #D0A666",
"oX c #ECB968",
"OX c #EAC27C",
"+X c #EEC468",
"@X c #747583",
"#X c #797A88",
"$X c #988C80",
"%X c #878995",
"&X c #8F9091",
"*X c #999AA4",
"=X c #9EA0A3",
"-X c #ABACB5",
";X c #B8B9BF",
":X c #CCAF86",
">X c #EAC892",
",X c #CEC4B1",
/* pixels */
"                                                                                                                                ",
"                                                                                                      g     g s                 ",
"                                                                                              Z s 2 a u = = p ; ;   $.          ",
"                                                                                          g l m f * % - > , , > % t XX          ",
"                                                                                      g u ; * # > 0 P E R @.O.W G =.:X          ",
"                                                                                    g p = & % 0 &.v.s.u.<.<.<.y.,.).^.D l       ",
"                                                                                  z f 1 & - J t.n.p.<.<.,.>.>.>.>.A.7.r y $XOX  ",
"                                                                                1 ; * * < J v.x.<.<.>.-.-.O.o.>.-.O.<.( 5 ~.>X  ",
"                                                                                * 2 1 = q t.x.<.<.-.-.-.O.T O.>.O.O.O.:./.>X    ",
"                                                                              N %XA y 7 6.x.<.<.-.-.-.-.T T -.>.@.1.-.3.OX      ",
"                                                                                @Xu < P x.4.<.>.-.-.-.O.! Q O.>.S.`.1.,.W.      ",
"                                                                              l s 1 7 0.p.<.>.-.-.>.>.O.! W o.>.)./.1.2.{.      ",
"                                                                              M ; % P s.<.,.-.-.-.,.,.O.T W W -.6.' O.r.        ",
"                                                                              h & , ;.u.<.>.-.-.>.<.,.-.0.+.W O.>.o.O.r.        ",
"                                                                            g l 1 w <.<.>.-.-.-.<.<.>.>. XC.T -.,.-.O.r.        ",
"                                                                            M n > W <.<.-.-.-.>.<.<.-.0.    +.>.<.-.o.e.        ",
"                                                                          S #X; 0 ,.<.>.-.-.-.<.<.,.O.q.      O.,.O.o.e.        ",
"                                                                          *Xg < Y <.<.-.-.-.-.<.<.>.O.q.      #.O.o.o.5.        ",
"                                                                        ;XA k e >.<.,.-.-.-.-.<.,.-.O.q.        Q o.>.p.        ",
"                                                                          -XV ~ <.<.-.O.-.-.-.>.-.-.O.0.          -.o.o.E.      ",
"                                                                            ].3.<.<.>.>.>.-.-.-.-.-.O.2.        W R 8 9 K.      ",
"      ;                                                                     5.<.<.<.u.i.i.u.u.,.>.-.O.>.E.      ) U 9 Y {.      ",
"      ;                                                                     <.<.<.<.a.d.d.d.B.b.s.,.-.-.A.        ' ;.K.        ",
"      ; z u                                                               <.<.<.<.<.u.d.d.d.d.m.T.c.<.>.r.            +X        ",
"      ; g 1                                                             <.<.<.<.<.<.<.u.d.d.d.d.m.T.s.<.e.                      ",
"    @X= u 1                                                           <.<.<.<.u.p.<.<.<.u.a.d.d.d.m.b.u.,.C.                    ",
"  b %X; = ;                                                       4.<.<.<.<.p.s.s.4.<.<.<.y.a.d.d.d.B.s.<.9.                    ",
"  1 S u * ; l                           g.4.4.<.<.<.4.5.5.5.5.<.<.<.<.<.<.p.s.s.s.p.<.<.<.<.y.a.d.d.m.c.,.)                     ",
"  1 g g * = g                       x.p.<.<.<.<.<.<.<.<.<.<.<.<.<.<.<.4.p.s.s.s.s.s.4.<.<.<.<.u.d.d.d.c.>.Q           R.        ",
"  Z u u = & s                     x.4.<.<.<.<.<.p.4.,.<.<.<.4.4.p.p.p.s.s.s.s.s.s.s.p.<.<.<.<.<.a.d.d.c.>.)         A.H.[.      ",
"  #Xu ; ; * ; n                 x.<.<.<.<.u.p.h.k.k.>.<.<.4.s.s.s.s.s.s.s.s.s.s.s.s.s.<.<.<.<.<.a.d.d.c.O.)       8.C.0.E.      ",
"    m & ; * $ u Z             j.4.p.f.h.k.k.k.I.I.k.,.<.<.4.s.s.s.s.s.s.s.s.s.s.s.s.s.4.<.<.<.<.a.d.d.i.o.V._.` ) C.  9.        ",
"    -Xf $ * # @ 3 z           e.f.k.L.I.I.L.L.L.I.f.,.<.<.<.p.s.s.s.s.s.s.s.s.s.s.s.s.4.<.<.<.u.d.d.d.3.W Q Q W       C.        ",
"    Z @X2 $ $ # $ 3 a       > 6.M.I.L.L.I.L.L.L.I.e.-.,.<.<.<.4.p.s.s.s.s.s.s.s.s.s.p.<.<.<.<.i.m.B.N.n.g.e.2.G.      G.        ",
"      g f 1 $ $ # % < < $ + > 6.h.h.f.s.f.k.L.L.k.;.W Q O.,.<.<.<.4.p.s.s.s.s.s.s.p.4.<.<.<.y.d.B.T.T.T.N.B.U.Q.U.Y.  (.        ",
"        i 1 * $ @ + + @ $ < v e.,.,.<.<.<.s.H.I.l.Q W W W Q >.<.<.<.<.4.p.p.p.p.4.<.<.<.<.<.u.d.d.m.m.d.z.|.    U.T.  D.        ",
"          d 2 2 1 u i d       :.O.O.>.<.<.u.k.L.0.W W W W W Q -.<.<.<.<.<.<.<.<.<.<.<.<.<.<.i.d.d.d.i.r.        U.U.G.V.        ",
"                              7.O.O.O.,.<.<.k.k.+.W W W W W W W -.<.<.<.<.<.<.<.<.<.<.<.<.<.w.R.}.A.F.            U.2.*.        ",
"                              7.O.O.O.>.<.<.k.Z.U E W W W W W W W -.<.<.<.<.<.<.<.<.<.<.-.9.'.                  D.C.e.          ",
"                              7.O.O.O.,.<.<.k.G.K H I U E W W W W W o.>.,.<.<.<.,.>.-.#.S.                    X U Q j.          ",
"                              7.O.O.-.<.<.<.j.    G G G H I U E W W W W Q O.O.o.Q ) V.                        . [ `.M.          ",
"                              7.O.O.>.<.<.s.      K G H I I H H / S.V.V.%.` %.C.D.                            j C oXz.          ",
"                              ;.O.-.<.<.s.n.        G I U U I G }                                             B =X  }.          ",
"                              -.-.<.<.s.P.        L H Y U U ^ }                                               &X,XR..X          ",
"                              -.,.<.g.W.    L G H I ^  . .                                                    B o  .            ",
"                            -.,.<.j.          L I _                                                           > 6 ^.            ",
"                          -.,.5.E.            { I _                                                           4 j               ",
"                        >.<.l.                  L ^                                                           j c               ",
"                    f.p.<.l.                      ~ |                                                                           ",
"                    k.f.l.                          ..                                                                          ",
"                    h.j.                            !...                                                                        ",
"                  j.j.                                /                                                                         ",
"                  J. X                                U =.                                                                      ",
"                  K.                                XX .                                                                        ",
"                                                  O ~ |                                                                         ",
"                [.                              > o ] !.                                                                        ",
"                R.                              4 4 V                                                                           ",
"                R.                              j x x                                                                           ",
"                P. X                              C                                                                             ",
"                P.l.e.X.                                                                                                        ",
"                    w e x                                                                                                       ",
"                    6 5 F                                                                                                       ",
"                                                                                                                                ",
"                                                                                                                                "
};
