/* XPM */
static char *_c2847f2439d4922f61db4ac69e2c5abg6Z5Pgwh49xa1h0g[] = {
/* columns rows colors chars-per-pixel */
"64 64 35 1 ",
"  c #E7E7E7",
". c #EAE7E7",
"X c #E7E9E7",
"o c #EAEAE7",
"O c #E7E7EA",
"+ c #EAE7EA",
"@ c #E7E9EA",
"# c #EBEBEB",
"$ c #EAEAEC",
"% c #EAE9EE",
"& c #ECE8EC",
"* c #ECEAEC",
"= c #E8ECEC",
"- c #EAEDEC",
"; c #ECEEEC",
": c #EEEFEE",
"> c #F1ECED",
", c #F1EFEF",
"< c #EEF0EE",
"1 c #EEF1EF",
"2 c #F0F0EF",
"3 c #EEEDF0",
"4 c #ECEEF0",
"5 c #EEEFF2",
"6 c #F0EDF3",
"7 c #F1EEF2",
"8 c #EFF0F1",
"9 c #F0F3F3",
"0 c gray95",
"q c #F5F3F2",
"w c #F3F4F3",
"e c #F4F4F2",
"r c #F1F1F5",
"t c #F4F3F5",
"y c #F5F4F5",
/* pixels */
"50#&;#$$++..&,&&&##$-&&#&6$#;$$#&o#$-2;##&$##--$;2;##&&&&-$&$5r;",
"ty00000000020qr0000000000y00w0000000wer00000ww0r0qr000qqq0000yyr",
"0t,,,55;;,;;;0522,6;,11,,w0011;;122;206;02,612,2,00882206,560et6",
"00#&##$##oo@#,#&&#$+o##o&0;;#####;&##5&#&;&&####o;;-;o#####&;20&",
"6r$$##;-####&0;&###+#$$#&2&###-;&&&&&8;&#&&ooo#-o;;-&o###-o;#8w;",
"60&&&###$-##$,&oo#O $-#+#1;#@# -$$;&&8;++&.o#o.@-15#+o#$;;###0r&",
"60+o&#$##--#&6-#o.+######1-#&o##$-;#$1;&&&.+##oo#;;$o##$&++#;,0&",
"6rO++#$#&##o#;-$&+++#+###21&#oo#$$&&#2;#;$#$$#@#o;;+o##&&+###;0&",
"0r$$###$#o##$;$+#####+###0;&#oo#&&$##;;$$-$$$#@++;5$#####+##o;0#",
"00$$##;;#+#$$8$.o#$@$&#o&1;###;o;;###5;$$&$#####+,5$&O$##++oo,0$",
"10#$+o#;#$&$&0- #$++$&#+&2#@-#&;&;;$-8;$$O$&o&;#&,;$#OO$-####60o",
"8e;;#$-# $$O&,$O#&;&;#O$-1#o#$##&&&##;;#&&&O+++o+,2####$$$##@;0o",
"6w;&;&&$$-#@$;#@#+#####$-8&####o##o##;;####-$##+#;;+@#&&#####1q&",
"0y0,,,55;5;;;2;;;;;;;;;;00,;;11;;;;;;88;;;108;;;;2;;;65;;;;5;0q,",
"0y05&;5;5;;,,01;;66;;&&5101;;;;;05;;;0621;22,;,5002;;;;;;5,;5rr;",
"0r;$ ##&$+.o;6-&##;#o+#$-;####$#&##&.,&###;;&&#;;,,#oo###&;&$60+",
",q;#####OO++;6;;$$#ooo###;&###&#o##o&0,&####+#o##;;+o;&&o#+##20+",
"2w#XXoo#.o##;5-#&&#o#$$##1;&O&#$.&&o-,,#+&#o+#oo.&&.o##$$$###10;",
"10#X##X  @##&5##..oo#$##@1&##&;#&##o#;;#+.o +ooo#;;.o##$$####;q;",
"1q&###@+@@##o,&o..#######;&oo;;#####X;;$#oo##&##&;;oo###@###o,q#",
"1w###o++o&###2;###$O@#++&;;oo;&#####@;;$-#;##;;##11#o#$##+###;0#",
"1r####..o&+$;2-$&;;$#o++$;##&o+&#$$@#;&$;###o##X#06&.###+#--$5r$",
";0##+&##&;##;5###-;#o##+#6;####o&O$#&,;oo.oo#$#$#2,. ###o#&-;00;",
",0&&##&&;$$O&;#@@###@@###2---#-o#$##+,;####@##-@#,&+#o&++#&#&60#",
"00;;#++&&##$;2+++#-#$+##-0-###$&#####,;#+#$@###@#6;#$##++$###;0#",
"0y82;;&;;;;;22;&&;1;;;;;12;;,;5;;;;1121;-;&;;;--;00;;&;;;111;2e;",
"0y802662;;;1222,662208;,02;5,,528888588808;,,2;,20005;081112;0w;",
"20$#&O$o##;o&;##&&o&$$#oo;$O#oo.#---$;-$$;-$&#$+&;;&-+&&&o###20$",
",r$;-$+#@$#o#,;;oo#;#@O##2&O#;;+#--#+85$$--#+##+#;;+O+###o@o#66O",
"10;#&###oo###0;&..#$&#$O&,OO##;$#&-#&6;#;#$###+..;1o.o######;00+",
"80&o#$##oo##$5&###$##$$#+5$###$$OO&-&6;####&#$#o.;2;#o##--&#;20o",
",0&&&$$#####$5&+#&$#####&5$#&#$OOO$#&;;##o#&###oo;;&&###--&&#;0o",
",0##;###X#$##5&+#&$$&##o#,$+$#&$$####1;#$#.++@##o1;o&#-&##$&#80&",
";0$$$$+.$####;O#;#@$-$$#;0$@##&&###X#1;#-$o#+.# +&&+&+;$#o#oo1w&",
"80##;#.###$+$8O##OO###O$-1#o#;#$&o #;6$X#oo###o#&55;;$$&+#@;;20&",
"10#$&####;$$-8$#$$#++###$8&#;;$&;#+#;6&#o;o#$#o#&65&&#&$$O+#o,0+",
";q&+O&###;#$;1####&&&#o#$5&###$####;#;&###;#@####1;&+.&#$$#o.,2o",
"6r;;&;;;&;;&;2;;$$&;;1#$-55-##$&##;;-,;---;;#;#;;12;&&&&--;;&,0;",
"00116600;00060066550021;;006655005;,600188,202200000001;8006,qt6",
"10;###&$$$&;;6$######;#+$5-#&&$&&#++O0;@#$####;;-56;-;###;#&&20O",
"50&#++##$&&#;6####o ####$,;##$##&&O##,;$OO++##o&#;,&&;;#$-$#+5rO",
"50##$$ #&&&&;6#####@#$$&$0;###o##+O##;;+ ++###++@1;+&;####$OO50#",
"8r$o#$+&#&##;6#ooo####$$$8-+++#@ OO##;$ ##$####+@8;&;;#@##$$#10&",
"10#o###&o#$$;5#+#o#$O###$0&OOO$@ O$$;;####@-#O$@@;;#;##$$$$-#,0+",
"8e;###+.o@#&&;&&;#o&$##+&2&$#+###$$#;2&+#++&&#oo$;;-$O##++###;6+",
"50##### .@#&&,&o###o+##+&0;##+##$###$,;#$O+..oo;#;;## ###@X#o;q&",
"50##$;#+####&2;#+++++##&;2;####$$###+0;-;&+#+ ###;;#$@#;#$--#60&",
";0##&&&$&$#+&2;&+++$&#;;&,;##$#$$$&o@;;--#$$OO@$$12;#@###@$$$60&",
";w--#+$#&&+O&2;#++#&;##$&2;##-#$-##o#;;###$+O$#$#12;#o### @O#20&",
"2w-$&##&;;-$-2;&&##&&;--&,;;;-#-;&###;;#$;;&&&;;;;;&;;;#$&$O#1r$",
"0t6522;;2,58122155560002;,,;122681;,15;;822,666;;,,;860662856rr;",
"2q;-##$-#$$#;,#$$&&&;;;--8-#&&--&&&&;0;-#-#;;&$$&,,##&;&&;&#;60$",
"0w#$###-# @#;2#@###+$&##-5#@++$$oo#&#;;#;#o;&++O+;;oo.o##;$##60$",
"0w#$&&&###@#;2$#####&&##;;# +#&######;;####&# +O+;;#.#&###$##50;",
",0&;&&#+ooo##1$##OO#;$##;;&###;##$&oo1#@$$$$O $$#;&O###o###o#5q;",
";0;&;##+XXo#&,+.#;$+o#--;0##&$&##&oo#01###&&++&#$55O#;o#$Ooo&,0;",
"20-&;;&+#####1&+##+&;;--;6;&&&O#&&++.65@##$######;,.###@+&;#&60;",
"10$#&&#+o###-2;o###&&;;#-1&&&#$#&&oo.,;###$###X@@;&#####+##&&00#",
",0O+###+ooX#;0###oo#&&&##1&#&#$++####;;#X####;$$@;5$$o#####&-00#",
"6r$#oo+&&###&,##$;;#&&#o#,;##++++$$$#;-###o.#;#$#56#+X$##+O+#80&",
"50@@#.o#+-##&2&$$#&O&#+o&,;#+++##$$$$8;## @ ###+#12&#--&&+. #;0&",
"5w-@#&--#;;;,0;;;##+##;;;0,#-$#-##$&;88-#;&####&#;,&&$$&;#;oo,0;",
"tyr00000w0rweerre00r00000eew000000000y0ww0qq000q00eqq000qq000yyw",
"0y0005;;5;5500;,206650060001820866865001;000;;00800;,,,,,,5;10t6"
};
