/* XPM */
static char *_401aad1d44f438fc7ef1fd3b4ebe8a5BkNW07YzZoZy69Wz[] = {
/* columns rows colors chars-per-pixel */
"64 64 256 2 ",
"   c #3D0700",
".  c #731C02",
"X  c #562302",
"o  c #6E2906",
"O  c #762A08",
"+  c #7A3608",
"@  c #782C13",
"#  c #793615",
"$  c #6B3311",
"%  c #5F240B",
"&  c #7B4619",
"*  c #7A4323",
"=  c #821E00",
"-  c #872905",
";  c #992D05",
":  c #88360A",
">  c #97380B",
",  c #872E14",
"<  c #873915",
"1  c #953B13",
"2  c #9B3B1B",
"3  c #963716",
"4  c #972F14",
"5  c #A4340C",
"6  c #A8380B",
"7  c #B83A08",
"8  c #A43413",
"9  c #AB3B13",
"0  c #A73A18",
"q  c #B43C13",
"w  c #B63B18",
"e  c #A82F0C",
"r  c #983B22",
"t  c #833922",
"y  c #A83D20",
"u  c #C63B14",
"i  c #C53B09",
"p  c #9A4409",
"a  c #8B441C",
"s  c #8A4617",
"d  c #9B4215",
"f  c #9B431C",
"g  c #9C4C1C",
"h  c #954818",
"j  c #99531B",
"k  c #8B450E",
"l  c #A7460C",
"z  c #B6450D",
"x  c #AB4414",
"c  c #A44B14",
"v  c #AC4B14",
"b  c #A3431B",
"n  c #AB441B",
"m  c #A34C1B",
"M  c #AB4B1C",
"N  c #A44314",
"B  c #B3441C",
"V  c #BA441B",
"C  c #B44B1C",
"Z  c #BC4B1B",
"A  c #B74814",
"S  c #AA531C",
"D  c #A75419",
"F  c #B4531C",
"G  c #BA571A",
"H  c #AF530E",
"J  c #B9611B",
"K  c #894824",
"L  c #9B4A23",
"P  c #984824",
"I  c #8A5628",
"U  c #945324",
"Y  c #9C5423",
"T  c #94542A",
"R  c #995928",
"E  c #9A5933",
"W  c #AC4B22",
"Q  c #A74824",
"!  c #B34D24",
"~  c #BB4C23",
"^  c #B74825",
"/  c #A45323",
"(  c #AB5424",
")  c #A35B24",
"_  c #AB5B23",
"`  c #AB5C2B",
"'  c #A6572C",
"]  c #B45423",
"[  c #BB5424",
"{  c #BB5C24",
"}  c #B3542A",
"|  c #B25C2B",
" . c #BB5C2D",
".. c #B75927",
"X. c #AC5B34",
"o. c #A75A35",
"O. c #B85B34",
"+. c #A84C33",
"@. c #9C632B",
"#. c #9A6437",
"$. c #956D34",
"%. c #AA632D",
"&. c #A86529",
"*. c #B4622B",
"=. c #BC632B",
"-. c #BB6B2C",
";. c #B86525",
":. c #BA712A",
">. c #AC6333",
",. c #A96837",
"<. c #B46334",
"1. c #BB6534",
"2. c #BB6C34",
"3. c #B46B3B",
"4. c #B76838",
"5. c #AB7438",
"6. c #BC733C",
"7. c #B87539",
"8. c #AD702F",
"9. c #C8470B",
"0. c #C24A14",
"q. c #C34C1B",
"w. c #C74718",
"e. c #D34B18",
"r. c #C4541D",
"t. c #CB531D",
"y. c #C85A1A",
"u. c #D2531C",
"i. c #D6581B",
"p. c #D2520B",
"a. c #CA631D",
"s. c #D7631C",
"d. c #E1631E",
"f. c #C74B23",
"g. c #C35424",
"h. c #CB5523",
"j. c #C45C23",
"k. c #CB5C23",
"l. c #C3542B",
"z. c #C95B2B",
"x. c #D65826",
"c. c #C55B32",
"v. c #D44E26",
"b. c #E25B27",
"n. c #C36323",
"m. c #CC6325",
"M. c #C4642B",
"N. c #CB652A",
"B. c #C56B2D",
"V. c #CB6B2C",
"C. c #C76B24",
"Z. c #D46323",
"A. c #DB6423",
"S. c #D3632B",
"D. c #D86A29",
"F. c #C7752D",
"G. c #D5732B",
"H. c #C46333",
"J. c #C46C32",
"K. c #CC6B32",
"L. c #C66839",
"P. c #D76A35",
"I. c #C47335",
"U. c #CC7234",
"Y. c #C3733B",
"T. c #CB743C",
"R. c #C47A3B",
"E. c #CA7B3B",
"W. c #C17B36",
"Q. c #D2753B",
"!. c #DB7B3C",
"~. c #D77737",
"^. c #E66928",
"/. c #E7762A",
"(. c #E26A34",
"). c #E47736",
"_. c #F57D2D",
"`. c #A86A44",
"'. c #B76C43",
"]. c #AC7546",
"[. c #BB7343",
"{. c #B97948",
"}. c #BA7A53",
"|. c #AC7B53",
" X c #A85D40",
".X c #C76C43",
"XX c #D46C42",
"oX c #C47443",
"OX c #C47A44",
"+X c #CC7C44",
"@X c #C47B4B",
"#X c #CB7C4B",
"$X c #C97447",
"%X c #D47B43",
"&X c #D77847",
"*X c #C57D52",
"=X c #CA7B53",
"-X c #D17C55",
";X c #E47C46",
":X c #E7774C",
">X c #D7843B",
",X c #C8813C",
"<X c #E58339",
"1X c #EB8832",
"2X c #BA824B",
"3X c #BB8455",
"4X c #BA935A",
"5X c #B88860",
"6X c #C38144",
"7X c #C4834B",
"8X c #CC844C",
"9X c #CA8747",
"0X c #D4834B",
"qX c #D88748",
"wX c #CA8C54",
"eX c #CB8C5B",
"rX c #C78757",
"tX c #D48C55",
"yX c #DB8C52",
"uX c #D68759",
"iX c #CA9358",
"pX c #DB935B",
"aX c #D89559",
"sX c #D8934C",
"dX c #E58748",
"fX c #E68A57",
"gX c #E79558",
"hX c #F5985A",
"jX c #EF8F4D",
"kX c #EBA35C",
"lX c #F4A45B",
"zX c #C88B63",
"xX c #D78C62",
"cX c #CB9663",
"vX c #DA9363",
"bX c #D79865",
"nX c #DB9C72",
"mX c #E49B64",
"MX c #E79967",
"NX c #F59C65",
"BX c #E28B60",
"VX c #CBA366",
"CX c #D8A369",
"ZX c #DAA776",
"AX c #D8B16F",
"SX c #E4A36C",
"DX c #E7A568",
"FX c #F5A368",
"GX c #E7A876",
"HX c #F6AA75",
"JX c #F9B77A",
"KX c #ECB272",
"LX c #F8C27C",
"PX c #FBB887",
"IX c #F1AF84",
"UX c #FCC58D",
/* pixels */
"ZXZXeXeXVXAXVXiXGXbXeXrXbXJXHXbXVXiXCXDXhXNXGXiXCXkXqXqXQ.1.+X+XdXgXnX`.zXbXvXxXGXPXIXbX3X{.yXyXfXMXuX*XZXVXcX,.{.bX|.|.5X5X}.}.",
"zX].E K VXVXCX7.o.T P h ' ) oX` eXiX6.;.G H.uX>.&.-.G G j.G { F ;.D }.K < K h : ,.`.E < T ' L.c c ] 1 < eX$.T L P K $ $ * K # o ",
"t t # # ZX|.a : , , , , 1 > b 3 3.[.x q.w.q.&X/ l A u.e.u.t.t.h.i.z W , P 3 4 3 }.# < < < X.W n B ! 0 r '.T Y ' P O # $ # # @ < ",
"< @ @ o zX3X+ : , , , , 4 3 n 4 X.oXq e.e.q.uX/ v r.x.x.u.u.x.h.y.l 1., O P 3 P zXT # # # E g b ! W 3 3 }.a < X.K o o o o $ # < ",
"a O < # eX3XU >.o.@ r , 2 b b 1 '.[.x r.A v @X>.c { v l l G G G S p 3.,.& K K o.ZXI & # $ I %.R R %.&.R cXI a K @.R & K K K T K ",
"uX@X*X@XJXKXtXSXxX3.4.xXMXfXBX$XvXoX! P.&XU.tX7X_ Y.( ( +X0XE.FXaXGXGXIXGXGXIXPXUXCXrX].#.|.3X7XpXGXSXGXcXeXeX>.3XrX3XrXeXnX3XrX",
"%XfXNXyXyXgX0XDX7XR O.:XfXPXMX#XL.L.c.c.H.] +X$X6.$Xo.< ' ' / vXE E  Xo.o.X.X..XL.T.| pX,.E $X.X0XyX' >.L ` 2.1.U T U Y >.mXT K ",
"A C M > [ F : pX{.h W 9 ] MX8Xd x 5 8 9 x - n n - L E @ 3 3 : T $ $ t O < L d N C j.l 1.L < W M v T.r 3 3 > { %Xh E < L g #XP # ",
"v.V 9 ~ l.V C $X#X( l.^ l.NX&XM q q 6 e q 5 ~ 0 > Q +., r 2 3 `.K $ * # a h d b j.r.l L.L < b M F &X+.+.r b F &X< +.+.+.m uXP , ",
"f.9 n > B ~ x &XuX[.} ^ ] NX<.d B 5 n > ; ; 0 ; - O.'., r 2 , }.* * * # s h g d I.J.> *.a < : m d 1.P r P d W &X< E +.X./ uXE # ",
"..*.Y.OX8XtX[.aXcXR L / j vX7X>.%.>./ / m ) >.'.,.[.*Xh / ( ' nX`.& & & R 3.>.7.2XwX{.aX].K Y 8.7XCX3X#.E I ,.vX2X,.T T T cX{.T ",
"E.E.+XaXbXKXpXmXvXrXbXMXvXpXuX{.bXnXMXMXMXtXPXUXJXFXMX0XqXQ.#XuXMX@XrXCXGXMXDXPXKXcXPXpX*X*X@X6.6.[.@X].].3XGXPXvXwX{.'.E `.#.R ",
"G.G.~.J.R.Y.c [ ! .XL.} ! ! Q 2 ' $X2 W 9 0 X.uX0 B e z s.D.h.V w 9 1.2.Q.P.P.$XbXU W B 0 2 n 5 5 5 Q 2 P + W L.M b 4 : : < < + ",
").G.k.l fXQ.F g.5 q ~ 8 5 l.f.8 Q O.4 y 6 8 2 } 6 w 7 p.d.^.w.w.u w XX] h.x.w.C #Xf B w 8 w ^ w f.w w 8 ' < W B 5 0 2 3 3 1 < - ",
"D.;XP.C dXJ.F [ ; 9 z.9 6 B w 5 Q .X4 0 8 ^ Q O.V u e.^.^.^.w.v.u f..X..k.t.t.z.4.h 9 w q > w 8 ; w ^ 2 `.s L b 0 8 2 3 , , , , ",
"p l ..N T.yX1.=.m W  .! c  ..XW X.uX} Q 0 0 $X&Xx Z k.m.V.D.Z g.z.H.+XS r.D.j.J.>.k ! ^ M W W 0 0 Q Q L #.$ K < f 4 1 P K K E o.",
"SX7XOX8XDX7X5.wX3X3XaXaXwXSXGXxXeXtXxXuXoX'.pXDX0X6.,.{.6.6.oX#XmXDXJXyXdXhXgX6X{.R 4.#XpX2.&X&X$XFXbX{.`.].`.}.cXrXvXxXrX{.}.eX",
"{.{.8X[.3.) j bXZX4X3.@X7XwXzX,.Y k ` '.X.4.*.I.+XSX].R {.6.oXuX{.5.2.I.~.U.&.Y j ` ( g aX) b [ ] oX8XU E o.T {.E Y 1.<.o.rXo.' ",
"g ` L 2 n n ! O.zXE 4 8 v *.OX` N 5 l.0 0 l.h.q.Z M g ` J.M.C  .[.h > G P.S.F c c ..C m 6.g 0 B B H.m ( Q 2 L =XQ > V B f '.b ! ",
"Y h 3 4 Q 9 9 W *Xo.0 8 ; Q.#Xg c.B ~ n [ Z x.w.h.[ <.` { Z C ] <.f > 9 h.q.A l v [ l.d 3.L ^ ^ n  .| | Q Q ' -XO.B f.V L L b c.",
"U # # @ , : ! .XeXT < b > 6.eXE ' Q | 1. .F g.z x | 8Xj M.V.M.+X4.Y f > B g.x p b W 3 1 ,.'.L } } 4.E 3.' E E zX'.} ^ W R P b c.",
"wXrX'.{.'.X.&XfXCX2X3.X.O 8XGXnXnXxX8X0XHXgX&XfXfXMXGXMXgXQ.qXyXOX<.4.4..X&X{ *.1 L o.T #.'.L 1 h ` 3.a X.T I #.<.L.W f h @XL.H.",
"kXqX%XyXGXMXL.L.6.3.bXvX,.uXMXSXZX3XaX>XqXfXFXyX#X#XoXY.] F { qXJ.Y.rXuX0XY.=.Y.,.K # s h j O k c J c %.3.,.* X X. .d m D Q.K.;X",
"G n.A v 8X[.Q 3 1 h T E K ' .X1.3XI -.~.n.M.Y.j _ > ] } c.[ N.N.m.;.4.h _ l y.M.h a K h g S S =.J n.N.M.+ E # o f  .W > v j.y.0.",
"P.z.q.G tX8.m 3 Q L K t % < H.S rX,.C.D.A.m.%X) v x B z.l.~ P.Z.^.y.| D ~.m.i.y.F 1 n x t.Z.k.j.k.y.^.P.- o.' > n } B 5 z D.u.w.",
"l.~ Z  .tX6Xm ( L O @ $ X < 1.m 8X8.~.D.A.S.0X_ ..[ l.~ ~ C g.k.y.G.&.k %XD.y.Z.v m c.g.S.).~.m.N.P.).P.- P ' b W ! n n [ S.g.Z ",
"( : f h 7XKX6X8.#.I #.E I $.{.,.aX>.-.G F v +X%.>.L L f : : 1 1 ( >.R o %._ c ..) h ` / ( | -._ g -.U._ + K ,.) + g / d Y ,.<.oX",
"8X[.@X*X@X6XR.aXZXCXPXGXaXKXbXtX+XyXU.F &X;XNX0X0XuX*X@X' | O.f o.].cXR R 6.2.Y.[.%.3.4.<.*.2.2.Y.E.E.9X{.,.iXiX9X0XuX@X].{.3X}.",
"H B.N ! 0 9 C M mXOX&X).G jXI.=.).D.k.r.x.x.(.k.P.fX$X1.M.N.P.fX3.{.#Xg D J.H.=.H.=.2.E.=.K.!.Q.!.!.V.V.E.D 7.&.E.~.U.Y.{.,.,.`.",
"G G C ^ w w z.9 gX;.y.s.9.jXG F A.u.x.0.z t.e.i.h.K.0X_ N.k.k.;Xh Y  .[ [ v [ H.....F B.;.m.Z.y.s.).D.Z.~.U.aX;.G dX~.;.8.R h >.",
"S d O.0 0 8 ~ n gX2.Z.^.p.dXM M (.7 0.q.; e w.x.r.K.mX) A t.h.Q.<.| c.f.V V g.l.W M v ~.~./.^.d.d.^.^.^.).>XkXI.V.hXjXI.&.,.` c ",
"s >.Q b W 1 1 / DX2.~.D.z ;X1.| z.k.c.T. .v r.y.l Y.DX7.M x C fX| m H.f.x q 5 ! } ( m B.C.y.Z.x.s.^.A.G.G.>XFXR.=.!.!.E.,.,./ g ",
"cXiXeX6.2.8XwXvXtX8XgX0XI.gXpXtXgXyXiXbXpXkXsX9X7.wXSXiXMX'.[.GXOX2.Y.yX@X8X1.2.6.6Xs R 7.:.( F V.C.F.9X8.2XwX{.%.j k %.OX< ,.GX",
"4X5.8XR.7.JXiXwX*.S oXY.2.-.Y.W.E.DX2X5.9X>X>XkX2XwX6X7.,.T R h _ I.B.,XCX5.Y.;.*.j k U ,.6X/ | J.;.7.iX&.5.%._ ` ` X.4.1.1.{.ZX",
"$.&.E.G.F.gXj >.M C [ [ M ] ] ] H fX1./ S.Z.s.<X*.=.B.[ : a : c n.).D.~.MXj D.D.S.Z B O.7X8Xp N.(.).E.sX| H.z.Z V l.l.g.Z g.] #X",
"5.7.dX<XG kX&./ M ~ [ l.[  .] F l dX1.] D.^.D.dXK.J.S.j./ L S K.G./.s.!.pX) D.d.x.A q ..@XtXm K.).).I.gXB.N.S.h.q f.A V x.z.! &X",
"5.@.0X%Xk pXj R m b } ] } } ..F p %X1.g J J G dXW.:.M.{ / j *.V.!.G.a.~.pXj n.m.F M M c 7XCXs D V.B.7.DX6XJ.=...x  .| d ] S m Y.",
"CX5.0XyX2.DX9X8.OX4.<.1.1.Y.8XI.-.0XOX2.:.F.C.>X9XW.2.1.*.2.M.K.Q.K.~.qXKX[.S G _ h S _ 7.bX8X@XJ.;.9XDX9XR.2.2.Y.0XgXR.6.6.OXmX",
"gXFXjX!.gXkXlXsXGXeX7.kXkXkXLXDXgX0XyXpXqXgXhXhXjXgXvXbXY.M.P.Q.yXaX+XR.GXGXOX2.tX8XaXaXsXqXyXyXqXU.,XkXgX9XwXiXqXqXsXsXaX7X9XqX",
"m.~.y.y.V.G.G.;.7X5.j :.F.:.KX7X_ F ;.-.;.F.~.<XG.H iX2Xl y.h.Z Y.[.g g 4.` ) ) %.&.6XR.C.G F M.n.n.J B.U.B.iX5.;.F.F.R.aX@.;.C.",
"^.i.Z.Z.Z.D.D.N.uX>.S K.P.M.PX#X[ h.m.m.S.).G.<X<XH iX5.H i.i.v.L.6.P 2 1 ( W  .F =.0X2.D.a.x.x.P.j.m.j.D.M.wX{.F.V.G.!.aX) j.G.",
"y.y.Z.y.m.k.S.G uX3.c %Xz.] GX@X[ r.N.K.m.~.).G.G.;.cXR H s.9.h.Y.8XL +.1 d } ] =...gXE.n.G r.z.M.l F { n...bX7XJ.~.V.Q.mX8.{ y.",
"2.j g D *.) *.%.iXcXj ) ) &.VXAX*.D / %.D F.F.F.-.j bX{.p G ;.D DX7X+ Y Y ) 2.OX{.5.iXaX:.7.5.8.8.j j %.7.7.SXaXS %XI.6XCX7X+XU.",
"CXbXpXpXtXSXeXiXwXwX6X9XaXDXKXKXJXyXaXR E.>XdXlXaXvX=XyXK.~.gXqX,X9X7.9XaX9X0XtXAXAXaXsXsXKXUXVXwX9X8XaXiXwX8X%XM &XT.E.qX0XyXfX",
"zXT <.$X*.PXMXL J.B.!.!.~.G.V.<X).!.0Xk >X1X1XlXS 1.!.P.A.D.D.G.m.!.a.C.qXE.dXU.CX5.J G.D.!.KX{.D M.K.0X7.&.k.v.w.f.A z 7 7 6 x ",
"5X+ d ] m NXoXd S.i.A._./._./.^.s.).| p a.1X/.jX: 1.(.x.x.^./.s.Z.Z.a.m.V.C.D.N.bX3.n.s.i.P.pX7.c N.k.~.qXc t.e.w.w.0.7 i e.q.A ",
"3X& Q W M MXoXm S./.^._._._././.^.(.L.( )._._.1X: X.).A.t.i.^.^.^.A.S.N.v n.s.S.eXR N.A.(.N.mX3.M N.r.K.mXS q.7 7 Z w.7 i u.q.x ",
"|.+ : > 1 fX4.h j.Z y./.s.s.s.y.9.k.L.b a.s.s.~.a U =.F j.A y.y.m.S.j.&XB.F G m.mXY v k.[  .GX,.m C g.j.T.( k.r.M F x q z A C  .",
"bX>.g *.=.I.9X2.@X6.-.qXQ.M.p -.U.U.$X&X~.l > uX}.* #.3.pX0XY.aX{.8XgXgXFXfXV.dXFXgXqXqX$X'.*X}.%.| L.;X{ %X<XFXGX*X8X+XaXmX@X{.",
"S -.M.B.K.N.U.E.2XeXp Q.Q. .1.qXU.;Xj.~.a.H 1 X.o.X $ #.6.U.OXSX2X7.qXU.~.qXB.V.C.G.G.;.8Xs < 1 h 1 ] [ A r.a.V.@XK 2.F.9X8X) a ",
"7 h.i.9.u.p.p.y.3.@XA x.u.t.M.P.i.i.i.A.A.i.e.h.H.<   # [ 7 Z G Y.D G.s.s./.).(.s.s.A.Z.NXh > 0 n C C Z 7 z y.Z.H.] D.s.G.dXc ( ",
"u.i.^.^.e.i.d.y.#XuX9 b.v.u.P.S.^.p.p.i.p.0.9.u.P.O X T [ e.v.t.%X=.P.A.d.i.(.A.A.^.s.y.gXk > M n B A z r.A 0.S.[ z.D.D.G.dXc _ ",
"z k.h.h.k.k.y.G ,.ZXm P.k.k.L.M y.p.y.m.{ A k.r.*.< X * Q 9 q 9 6.-.K.r.k.r.N.M.N.y.a.a.aX+ < : m > G l l F p J.>.Y | I.tXtX@.U ",
"&X&XXXQ.~.dXdX-.].3X/ ..j.M.T.%XjX<XqX0XhXFXNXhX0X{.3X|..XL.XXXXyXtXgXdX&XQ.K.;XjXhXjXhXJX3.,.uX$X%XqX>X6.R.T.yXGXmXmXFXPXPXSXiX",
"MXuXfXfXdXNXJX@XtXyX&XdXhXjXdXK.>XJXaXbXgXyXgXtXmXOXBXgXgXhXfXhXNXgXNXhX%XH.g.P.dXhXhXjX~.] X.uXXXg.:XH.uX{.1.L.yXMX%X&X&XfX$XQ.",
"}.h n 9 A =.uXh =.G x F j.j.z m.G U.3.k =.=.( h ` c r.z l x q V j.G F j.N n ~ q { !.dXG r.g.' < q 0.w.n xXR [ g.{ F v N b } z.k.",
"rX1 V 7 7 z.uX1 k.z w.f.0.A 0.A.x.k.$X: P.x.c.! ; g.e.9.e.e.w.x.x.t.t.S.0 M V q G !.V.m.y.A >.: 0.e.b.Z 8X>.XXq.z.g.l p 1 ' c.z.",
"GXh f.7 0.S.$X: g.w.w f.Z A q S.x.g.-X` A x.W b - [ x.9.9.t.w.q.h.q.Z P.W b ! > S F B.N.j.c {.h q.^.^.j.mXY H.~ C F : o o s O.c.",
"cX+ M 9 5 L.eX< / M W M m m d ] C  .xXwX;.S / s T U ( m M ..] ] L.] m 4.) k L < 7.7.-.D Y.3.3X2X[.+X:.W.JX,.,.3.' >.@.@.I I ,.3.",
"SXtX$XXXL.&XMXvXrX*X-X$XuXpXvX-XXX&XHXDXgXI.8X@XxXnXzX[.+XgXNXHXMXuX$X@XOX' Y '.vXmXdXT.[.bXZXGXaXMXR.8.tXSXGXIXuXuXtXwX3XCXZXIX",
"C [ 5 ^ ~ B [ b *X'.} ! c.} X.Q z.w.z.P.S.k.G c. .uXo.3 C r.h.P.&X3 9 9 9 n 3 - B f.q.V . / X.f ^ ~ x ] ! W L -Xc.g.z z F #Xs ,.",
"7 q w 6 e q v.q o.{..X5 e Z = O.b.u w.(.(.x.x.x.f.~ . y z.v.u.x.! 0 V 7 w B 0 8 w f.w.w . / ( ; e q B l.l.0 3 $Xl.:Xb.u.t.P.o I ",
"e.f.w w u u u q eXbXM q.v.v.- ! x.7 0.(.x.w.b.x.h.B = ! x.b.x.P.4.f Z 7 6 9 0 e e w V n + >.8X| ; 9  ._ c ( f | N P.x.e.v.dX' U ",
"u v.w w 7 u w.5 eXGXL.w.e.v.; ! x.7 0.A.x.w.u v.0.~ - C u.i.9.!.PX>.g.0.q B w 9 w q.V  .%.CXPX#X5 c.HXFX1.NXoXoXN G t.u.w.P.mXbX"
};
